<svg width="86" height="86" viewBox="0 0 86 86" fill="none" xmlns="http://www.w3.org/2000/svg">
<g clip-path="url(#clip0_147_656)">
<path d="M68.585 46.3684C68.7283 45.2934 68.8 44.1826 68.8 43.0001C68.8 41.8534 68.7283 40.7068 68.5492 39.6318L75.8233 33.9701C76.4683 33.4684 76.6475 32.5009 76.2533 31.7843L69.3733 19.8876C68.9433 19.0993 68.0475 18.8484 67.2592 19.0993L58.695 22.5393C56.9033 21.1776 55.0042 20.0309 52.89 19.1709L51.6 10.0693C51.4566 9.20926 50.74 8.6001 49.88 8.6001H36.12C35.26 8.6001 34.5792 9.20926 34.4358 10.0693L33.1458 19.1709C31.0317 20.0309 29.0967 21.2134 27.3408 22.5393L18.7767 19.0993C17.9883 18.8126 17.0925 19.0993 16.6625 19.8876L9.81832 31.7843C9.38832 32.5368 9.53165 33.4684 10.2483 33.9701L17.5225 39.6318C17.3433 40.7068 17.2 41.8893 17.2 43.0001C17.2 44.1109 17.2717 45.2934 17.4508 46.3684L10.1767 52.0301C9.53165 52.5318 9.35249 53.4993 9.74665 54.2159L16.6267 66.1126C17.0567 66.9009 17.9525 67.1518 18.7408 66.9009L27.305 63.4609C29.0967 64.8226 30.9958 65.9693 33.11 66.8293L34.4 75.9309C34.5792 76.7909 35.26 77.4001 36.12 77.4001H49.88C50.74 77.4001 51.4567 76.7909 51.5642 75.9309L52.8542 66.8293C54.9683 65.9693 56.9033 64.8226 58.6592 63.4609L67.2233 66.9009C68.0117 67.1876 68.9075 66.9009 69.3375 66.1126L76.2175 54.2159C76.6475 53.4276 76.4683 52.5318 75.7875 52.0301L68.585 46.3684ZM43 55.9001C35.905 55.9001 30.1 50.0951 30.1 43.0001C30.1 35.9051 35.905 30.1001 43 30.1001C50.095 30.1001 55.9 35.9051 55.9 43.0001C55.9 50.0951 50.095 55.9001 43 55.9001Z" fill="#020136"/>
</g>
<defs>
<clipPath id="clip0_147_656">
<rect width="86" height="86" fill="white"/>
</clipPath>
</defs>
</svg>
